<?xml version="1.0" encoding="iso-8859-1"?>
<!-- Generator: Adobe Illustrator 19.0.0, SVG Export Plug-In . SVG Version: 6.00 Build 0)  -->
<svg version="1.1" id="Layer_1" xmlns="http://www.w3.org/2000/svg" xmlns:xlink="http://www.w3.org/1999/xlink" x="0px" y="0px"
	 viewBox="0 0 512 512" style="enable-background:new 0 0 512 512;" xml:space="preserve">
<path style="fill:#FF5450;" d="M456.747,85.13l-37.395,13.439l-8.781,32.737c15.625,15.625,15.625,40.96,0,56.585
	s-40.96,15.625-56.585,0c-3.144-3.144-78.505,48.951-78.505,48.951L115.945,425.932l56.191,56.191l61.309-20.898l58.198,20.898
	l208.947-208.947L512,140.382L456.747,85.13z"/>
<path style="fill:#FF9491;" d="M353.986,131.305c15.625-15.625,40.96-15.625,56.585,0l46.175-46.175l-55.253-55.253L268.701,41.286
	L0,309.987l115.945,115.945L353.986,187.89C338.361,172.265,338.361,146.93,353.986,131.305z"/>
<g>
	<polygon style="fill:#FF0035;" points="172.136,482.123 231.89,422.37 291.644,482.123 	"/>
	<polygon style="fill:#FF0035;" points="377.501,307.963 305.708,236.169 287.236,239.864 283.542,258.334 355.335,330.128 	"/>
	<polygon style="fill:#FF0035;" points="316.613,368.85 338.779,346.685 266.986,274.891 248.514,278.585 244.821,297.056 	"/>
	<polygon style="fill:#FF0035;" points="257.152,386.832 279.318,364.666 228.264,313.613 209.793,317.306 206.099,335.778 	"/>
</g>
<g>
	
		<rect x="177.851" y="213.609" transform="matrix(-0.7071 -0.7071 0.7071 -0.7071 177.9494 532.273)" style="fill:#FF5450;" width="42.722" height="31.347"/>
	
		<rect x="243.047" y="160.589" transform="matrix(-0.7071 0.7071 -0.7071 -0.7071 591.1144 177.863)" style="fill:#FF5450;" width="31.347" height="101.532"/>
	
		<rect x="225.789" y="257.825" transform="matrix(0.7071 0.7071 -0.7071 0.7071 264.6924 -92.0275)" style="fill:#FF5450;" width="35.288" height="31.347"/>
	
		<rect x="155.548" y="283.496" transform="matrix(0.7071 0.7071 -0.7071 0.7071 267.6768 -47.8914)" style="fill:#FF5450;" width="72.202" height="31.347"/>
</g>
<g>
</g>
<g>
</g>
<g>
</g>
<g>
</g>
<g>
</g>
<g>
</g>
<g>
</g>
<g>
</g>
<g>
</g>
<g>
</g>
<g>
</g>
<g>
</g>
<g>
</g>
<g>
</g>
<g>
</g>
</svg>
